<svg xmlns="http://www.w3.org/2000/svg" xmlns:xlink="http://www.w3.org/1999/xlink" width="500" zoomAndPan="magnify" viewBox="0 0 375 374.999991" height="500" preserveAspectRatio="xMidYMid meet" version="1.0"><defs><g/></defs><g fill="#12f7d6" fill-opacity="1"><g transform="translate(23.18241, 189.731047)"><g><path d="M 56.78125 -74.5625 C 57.40625 -74.21875 57.941406 -73.664062 58.390625 -72.90625 C 58.847656 -72.144531 59.078125 -71.101562 59.078125 -69.78125 C 59.078125 -68.113281 58.742188 -66.535156 58.078125 -65.046875 C 57.421875 -63.554688 56.554688 -62.378906 55.484375 -61.515625 C 54.410156 -60.648438 53.25 -60.21875 52 -60.21875 C 51.300781 -60.21875 50.625 -60.351562 49.96875 -60.625 C 49.3125 -60.90625 48.328125 -61.320312 47.015625 -61.875 C 44.929688 -62.914062 42.796875 -63.75 40.609375 -64.375 C 38.429688 -65 35.78125 -65.3125 32.65625 -65.3125 C 30.71875 -65.3125 28.984375 -65.050781 27.453125 -64.53125 C 25.929688 -64.007812 24.71875 -63.28125 23.8125 -62.34375 C 22.914062 -61.40625 22.46875 -60.316406 22.46875 -59.078125 C 22.46875 -57.484375 23.035156 -56.09375 24.171875 -54.90625 C 25.316406 -53.726562 26.945312 -52.601562 29.0625 -51.53125 C 31.175781 -50.457031 33.691406 -49.191406 36.609375 -47.734375 C 42.015625 -45.171875 46.519531 -42.726562 50.125 -40.40625 C 53.726562 -38.082031 56.414062 -35.476562 58.1875 -32.59375 C 59.957031 -29.71875 60.84375 -26.203125 60.84375 -22.046875 C 60.84375 -19.066406 60.148438 -16.15625 58.765625 -13.3125 C 57.378906 -10.46875 55.398438 -7.898438 52.828125 -5.609375 C 50.265625 -3.328125 47.179688 -1.492188 43.578125 -0.109375 C 39.972656 1.273438 35.953125 1.96875 31.515625 1.96875 C 28.046875 1.96875 24.769531 1.671875 21.6875 1.078125 C 18.601562 0.492188 15.863281 -0.296875 13.46875 -1.296875 C 11.070312 -2.304688 9.113281 -3.332031 7.59375 -4.375 C 5.445312 -6.03125 4.375 -7.832031 4.375 -9.78125 C 4.375 -11.164062 4.753906 -12.566406 5.515625 -13.984375 C 6.273438 -15.410156 7.207031 -16.625 8.3125 -17.625 C 9.425781 -18.632812 10.4375 -19.140625 11.34375 -19.140625 C 11.894531 -19.140625 12.535156 -19 13.265625 -18.71875 C 13.992188 -18.4375 14.804688 -18.019531 15.703125 -17.46875 C 17.785156 -16.363281 20.070312 -15.410156 22.5625 -14.609375 C 25.0625 -13.816406 28.007812 -13.421875 31.40625 -13.421875 C 33.90625 -13.421875 36.035156 -13.75 37.796875 -14.40625 C 39.566406 -15.0625 40.921875 -15.925781 41.859375 -17 C 42.796875 -18.070312 43.265625 -19.269531 43.265625 -20.59375 C 43.265625 -22.320312 42.65625 -23.863281 41.4375 -25.21875 C 40.226562 -26.570312 38.390625 -27.90625 35.921875 -29.21875 C 33.460938 -30.539062 30.296875 -31.929688 26.421875 -33.390625 C 23.578125 -34.566406 20.851562 -35.847656 18.25 -37.234375 C 15.65625 -38.617188 13.332031 -40.265625 11.28125 -42.171875 C 9.238281 -44.078125 7.609375 -46.296875 6.390625 -48.828125 C 5.179688 -51.359375 4.578125 -54.320312 4.578125 -57.71875 C 4.578125 -62.226562 5.789062 -66.179688 8.21875 -69.578125 C 10.644531 -72.972656 14.003906 -75.640625 18.296875 -77.578125 C 22.597656 -79.523438 27.628906 -80.5 33.390625 -80.5 C 37.679688 -80.5 41.925781 -79.941406 46.125 -78.828125 C 50.320312 -77.722656 53.875 -76.300781 56.78125 -74.5625 Z M 56.78125 -74.5625 "/></g></g></g><g fill="#12f7d6" fill-opacity="1"><g transform="translate(88.177466, 189.731047)"><g><path d="M 3.640625 -24.34375 C 3.640625 -28.570312 4.265625 -32.660156 5.515625 -36.609375 C 6.765625 -40.554688 8.550781 -44.085938 10.875 -47.203125 C 13.195312 -50.328125 16.035156 -52.804688 19.390625 -54.640625 C 22.753906 -56.484375 26.585938 -57.40625 30.890625 -57.40625 C 33.585938 -57.40625 35.957031 -56.972656 38 -56.109375 C 40.050781 -55.242188 41.875 -54.015625 43.46875 -52.421875 C 43.8125 -53.941406 44.398438 -55.1875 45.234375 -56.15625 C 46.066406 -57.125 47.5625 -57.609375 49.71875 -57.609375 C 52.207031 -57.609375 54.390625 -57 56.265625 -55.78125 C 58.140625 -54.570312 59.039062 -53.035156 58.96875 -51.171875 C 58.894531 -49.296875 58.582031 -46.742188 58.03125 -43.515625 C 57.476562 -40.296875 56.992188 -37.128906 56.578125 -34.015625 C 56.441406 -33.035156 56.25 -31.78125 56 -30.25 C 55.757812 -28.726562 55.550781 -27.222656 55.375 -25.734375 C 55.207031 -24.242188 55.085938 -22.976562 55.015625 -21.9375 C 54.941406 -20.90625 54.90625 -19.609375 54.90625 -18.046875 C 54.90625 -16.484375 55.113281 -15.113281 55.53125 -13.9375 C 55.945312 -12.757812 56.640625 -12.171875 57.609375 -12.171875 C 58.171875 -12.171875 58.660156 -12.304688 59.078125 -12.578125 C 59.492188 -12.859375 59.90625 -13.242188 60.3125 -13.734375 C 61.007812 -14.210938 61.617188 -14.609375 62.140625 -14.921875 C 62.660156 -15.234375 63.335938 -15.390625 64.171875 -15.390625 C 65.140625 -15.390625 66.019531 -15.0625 66.8125 -14.40625 C 67.613281 -13.75 68.238281 -12.863281 68.6875 -11.75 C 69.144531 -10.644531 69.164062 -9.398438 68.75 -8.015625 C 68.46875 -6.691406 67.5625 -5.335938 66.03125 -3.953125 C 64.507812 -2.566406 62.722656 -1.40625 60.671875 -0.46875 C 58.628906 0.46875 56.601562 0.9375 54.59375 0.9375 C 52.582031 0.9375 50.742188 0.503906 49.078125 -0.359375 C 47.421875 -1.222656 46.019531 -2.398438 44.875 -3.890625 C 43.726562 -5.390625 42.945312 -7.144531 42.53125 -9.15625 C 40.726562 -6.445312 38.351562 -4.191406 35.40625 -2.390625 C 32.457031 -0.585938 29.148438 0.3125 25.484375 0.3125 C 20.898438 0.3125 16.976562 -0.757812 13.71875 -2.90625 C 10.46875 -5.0625 7.972656 -7.992188 6.234375 -11.703125 C 4.503906 -15.410156 3.640625 -19.625 3.640625 -24.34375 Z M 21.21875 -25.0625 C 21.21875 -22.84375 21.457031 -20.847656 21.9375 -19.078125 C 22.425781 -17.316406 23.171875 -15.914062 24.171875 -14.875 C 25.179688 -13.832031 26.519531 -13.3125 28.1875 -13.3125 C 29.570312 -13.3125 30.785156 -13.640625 31.828125 -14.296875 C 32.867188 -14.953125 33.800781 -15.851562 34.625 -17 C 35.457031 -18.144531 36.117188 -19.484375 36.609375 -21.015625 C 37.160156 -22.609375 37.644531 -24.269531 38.0625 -26 C 38.476562 -27.726562 38.820312 -29.492188 39.09375 -31.296875 C 39.375 -33.109375 39.617188 -34.878906 39.828125 -36.609375 C 40.035156 -38.335938 40.210938 -40.035156 40.359375 -41.703125 C 39.378906 -42.609375 38.265625 -43.316406 37.015625 -43.828125 C 35.773438 -44.347656 34.460938 -44.609375 33.078125 -44.609375 C 31.203125 -44.609375 29.535156 -44.101562 28.078125 -43.09375 C 26.617188 -42.09375 25.367188 -40.691406 24.328125 -38.890625 C 23.296875 -37.085938 22.519531 -35.007812 22 -32.65625 C 21.476562 -30.300781 21.21875 -27.769531 21.21875 -25.0625 Z M 21.21875 -25.0625 "/></g></g></g><g fill="#12f7d6" fill-opacity="1"><g transform="translate(158.476125, 189.731047)"><g><path d="M 7.484375 -53.359375 C 7.835938 -55.222656 8.707031 -56.519531 10.09375 -57.25 C 11.476562 -57.976562 13.519531 -58.34375 16.21875 -58.34375 C 18.851562 -58.34375 20.742188 -57.820312 21.890625 -56.78125 C 23.035156 -55.738281 23.609375 -54.664062 23.609375 -53.5625 C 23.609375 -53.007812 23.535156 -52.28125 23.390625 -51.375 C 23.253906 -50.476562 23.132812 -49.472656 23.03125 -48.359375 C 22.925781 -47.253906 22.84375 -46.078125 22.78125 -44.828125 C 23.675781 -46.691406 24.765625 -48.59375 26.046875 -50.53125 C 27.328125 -52.476562 29.113281 -54.09375 31.40625 -55.375 C 33.695312 -56.65625 36.679688 -57.296875 40.359375 -57.296875 C 46.453125 -57.296875 51.023438 -55.09375 54.078125 -50.6875 C 57.128906 -46.289062 58.65625 -40.523438 58.65625 -33.390625 C 58.65625 -29.710938 58.410156 -26.257812 57.921875 -23.03125 C 57.441406 -19.8125 56.957031 -16.691406 56.46875 -13.671875 C 55.988281 -10.660156 55.75 -7.59375 55.75 -4.46875 C 55.75 -3.007812 55.019531 -1.671875 53.5625 -0.453125 C 52.101562 0.753906 49.847656 1.359375 46.796875 1.359375 C 43.816406 1.359375 41.71875 0.734375 40.5 -0.515625 C 39.289062 -1.765625 38.6875 -3.253906 38.6875 -4.984375 C 38.6875 -8.109375 38.960938 -11.003906 39.515625 -13.671875 C 40.078125 -16.347656 40.613281 -19.070312 41.125 -21.84375 C 41.644531 -24.613281 41.90625 -27.734375 41.90625 -31.203125 C 41.90625 -33.972656 41.679688 -36.140625 41.234375 -37.703125 C 40.785156 -39.265625 40.09375 -40.40625 39.15625 -41.125 C 38.21875 -41.851562 37.09375 -42.21875 35.78125 -42.21875 C 34.320312 -42.21875 32.96875 -41.695312 31.71875 -40.65625 C 30.46875 -39.625 29.320312 -38.273438 28.28125 -36.609375 C 27.25 -34.941406 26.347656 -33.117188 25.578125 -31.140625 C 24.816406 -29.171875 24.160156 -27.25 23.609375 -25.375 C 23.816406 -21.5625 23.9375 -17.78125 23.96875 -14.03125 C 24.007812 -10.289062 23.925781 -6.96875 23.71875 -4.0625 C 23.644531 -2.601562 22.929688 -1.316406 21.578125 -0.203125 C 20.222656 0.898438 18.054688 1.453125 15.078125 1.453125 C 12.378906 1.453125 10.382812 1.035156 9.09375 0.203125 C 7.8125 -0.628906 6.976562 -1.71875 6.59375 -3.0625 C 6.21875 -4.414062 6.03125 -5.859375 6.03125 -7.390625 C 6.03125 -9.816406 6.132812 -12.378906 6.34375 -15.078125 C 6.550781 -17.785156 6.929688 -20.421875 7.484375 -22.984375 C 7.347656 -26.796875 7.226562 -30.226562 7.125 -33.28125 C 7.019531 -36.332031 6.945312 -39.101562 6.90625 -41.59375 C 6.875 -44.09375 6.894531 -46.3125 6.96875 -48.25 C 7.039062 -50.195312 7.210938 -51.898438 7.484375 -53.359375 Z M 7.484375 -53.359375 "/></g></g></g><g fill="#12f7d6" fill-opacity="1"><g transform="translate(222.639253, 189.731047)"><g><path d="M 8.734375 -51.171875 C 8.734375 -52.554688 9.148438 -53.695312 9.984375 -54.59375 C 10.816406 -55.5 11.890625 -56.191406 13.203125 -56.671875 C 14.523438 -57.160156 15.8125 -57.40625 17.0625 -57.40625 C 19.96875 -57.40625 22.148438 -56.882812 23.609375 -55.84375 C 25.066406 -54.800781 25.796875 -53.242188 25.796875 -51.171875 C 25.796875 -46.453125 25.671875 -42.238281 25.421875 -38.53125 C 25.179688 -34.820312 24.90625 -31.25 24.59375 -27.8125 C 24.28125 -24.382812 23.984375 -20.796875 23.703125 -17.046875 C 23.429688 -13.304688 23.226562 -9.007812 23.09375 -4.15625 C 23.019531 -2.21875 22.21875 -0.78125 20.6875 0.15625 C 19.164062 1.09375 17.085938 1.5625 14.453125 1.5625 C 12.023438 1.5625 10.1875 1.210938 8.9375 0.515625 C 7.695312 -0.171875 6.867188 -1.015625 6.453125 -2.015625 C 6.035156 -3.023438 5.828125 -4.050781 5.828125 -5.09375 C 5.828125 -5.71875 5.910156 -7.242188 6.078125 -9.671875 C 6.253906 -12.097656 6.476562 -15.078125 6.75 -18.609375 C 7.03125 -22.148438 7.328125 -25.894531 7.640625 -29.84375 C 7.953125 -33.800781 8.210938 -37.648438 8.421875 -41.390625 C 8.628906 -45.140625 8.734375 -48.398438 8.734375 -51.171875 Z M 8.421875 -73.9375 C 8.421875 -75.882812 8.835938 -77.582031 9.671875 -79.03125 C 10.503906 -80.488281 11.628906 -81.613281 13.046875 -82.40625 C 14.472656 -83.207031 16.050781 -83.609375 17.78125 -83.609375 C 20.757812 -83.609375 23.03125 -83.140625 24.59375 -82.203125 C 26.15625 -81.273438 27.210938 -80.148438 27.765625 -78.828125 C 28.316406 -77.515625 28.59375 -76.269531 28.59375 -75.09375 C 28.59375 -72.175781 27.601562 -69.867188 25.625 -68.171875 C 23.65625 -66.472656 21.109375 -65.625 17.984375 -65.625 C 15.148438 -65.625 12.847656 -66.332031 11.078125 -67.75 C 9.304688 -69.175781 8.421875 -71.238281 8.421875 -73.9375 Z M 8.421875 -73.9375 "/></g></g></g><g fill="#12f7d6" fill-opacity="1"><g transform="translate(254.668814, 189.731047)"><g><path d="M 8.625 -53.046875 C 8.90625 -54.492188 9.804688 -55.613281 11.328125 -56.40625 C 12.859375 -57.207031 14.523438 -57.609375 16.328125 -57.609375 C 18.335938 -57.609375 20 -57.125 21.3125 -56.15625 C 22.632812 -55.1875 23.296875 -54.046875 23.296875 -52.734375 C 23.296875 -52.035156 23.207031 -51.21875 23.03125 -50.28125 C 22.863281 -49.34375 22.675781 -48.078125 22.46875 -46.484375 C 24.0625 -48.910156 25.738281 -50.90625 27.5 -52.46875 C 29.269531 -54.03125 31.226562 -55.207031 33.375 -56 C 35.53125 -56.800781 37.859375 -57.203125 40.359375 -57.203125 C 42.222656 -57.203125 44.070312 -56.890625 45.90625 -56.265625 C 47.75 -55.640625 49.46875 -54.582031 51.0625 -53.09375 C 52.65625 -51.601562 53.9375 -49.472656 54.90625 -46.703125 C 56.363281 -48.847656 58.007812 -50.734375 59.84375 -52.359375 C 61.6875 -53.992188 63.734375 -55.273438 65.984375 -56.203125 C 68.242188 -57.140625 70.6875 -57.609375 73.3125 -57.609375 C 77.132812 -57.609375 80.222656 -56.863281 82.578125 -55.375 C 84.929688 -53.882812 86.75 -51.835938 88.03125 -49.234375 C 89.3125 -46.640625 90.175781 -43.695312 90.625 -40.40625 C 91.082031 -37.113281 91.3125 -33.695312 91.3125 -30.15625 C 91.3125 -27.875 91.257812 -25.78125 91.15625 -23.875 C 91.050781 -21.96875 90.894531 -20.09375 90.6875 -18.25 C 90.476562 -16.414062 90.25 -14.507812 90 -12.53125 C 89.757812 -10.550781 89.503906 -8.316406 89.234375 -5.828125 C 88.953125 -3.535156 87.992188 -1.90625 86.359375 -0.9375 C 84.734375 0.03125 82.988281 0.515625 81.125 0.515625 C 77.582031 0.515625 75.273438 0.03125 74.203125 -0.9375 C 73.128906 -1.90625 72.59375 -3.328125 72.59375 -5.203125 C 72.59375 -6.171875 72.695312 -7.4375 72.90625 -9 C 73.113281 -10.5625 73.375 -12.363281 73.6875 -14.40625 C 74 -16.445312 74.257812 -18.75 74.46875 -21.3125 C 74.675781 -23.882812 74.78125 -26.660156 74.78125 -29.640625 C 74.78125 -33.660156 74.378906 -36.78125 73.578125 -39 C 72.785156 -41.21875 71.207031 -42.328125 68.84375 -42.328125 C 67.664062 -42.328125 66.488281 -41.960938 65.3125 -41.234375 C 64.132812 -40.503906 63.023438 -39.550781 61.984375 -38.375 C 60.941406 -37.195312 60.019531 -35.878906 59.21875 -34.421875 C 58.425781 -32.960938 57.785156 -31.472656 57.296875 -29.953125 C 57.296875 -28.628906 57.257812 -27.484375 57.1875 -26.515625 C 57.125 -25.546875 57.070312 -24.628906 57.03125 -23.765625 C 57 -22.898438 56.953125 -21.984375 56.890625 -21.015625 C 56.816406 -18.992188 56.710938 -17.03125 56.578125 -15.125 C 56.441406 -13.21875 56.335938 -11.414062 56.265625 -9.71875 C 56.191406 -8.019531 56.15625 -6.441406 56.15625 -4.984375 C 56.09375 -2.703125 55.398438 -1.109375 54.078125 -0.203125 C 52.765625 0.691406 50.546875 1.140625 47.421875 1.140625 C 44.515625 1.140625 42.398438 0.675781 41.078125 -0.25 C 39.765625 -1.1875 39.140625 -2.90625 39.203125 -5.40625 C 39.273438 -7.90625 39.414062 -10.488281 39.625 -13.15625 C 39.832031 -15.820312 40.039062 -18.644531 40.25 -21.625 C 40.457031 -24.613281 40.5625 -27.703125 40.5625 -30.890625 C 40.5625 -34.910156 40.210938 -37.800781 39.515625 -39.5625 C 38.828125 -41.332031 37.546875 -42.21875 35.671875 -42.21875 C 34.285156 -42.21875 32.878906 -41.765625 31.453125 -40.859375 C 30.035156 -39.960938 28.703125 -38.75 27.453125 -37.21875 C 26.203125 -35.695312 25.0625 -33.96875 24.03125 -32.03125 C 23.882812 -28.5625 23.742188 -25.109375 23.609375 -21.671875 C 23.472656 -18.242188 23.351562 -15.09375 23.25 -12.21875 C 23.144531 -9.34375 23.019531 -6.929688 22.875 -4.984375 C 22.738281 -2.703125 22.03125 -1.109375 20.75 -0.203125 C 19.46875 0.691406 17.507812 1.140625 14.875 1.140625 C 11.6875 1.140625 9.363281 0.691406 7.90625 -0.203125 C 6.445312 -1.109375 5.753906 -2.84375 5.828125 -5.40625 C 5.960938 -9.21875 6.097656 -13.425781 6.234375 -18.03125 C 6.378906 -22.644531 6.554688 -27.347656 6.765625 -32.140625 C 6.898438 -35.742188 7.101562 -39.328125 7.375 -42.890625 C 7.65625 -46.460938 8.070312 -49.847656 8.625 -53.046875 Z M 8.625 -53.046875 "/></g></g></g><g fill="#12f7d6" fill-opacity="1"><g transform="translate(14.580848, 293.23104)"><g><path d="M 8.09375 -63.625 C 8.207031 -64.914062 8.835938 -66.101562 9.984375 -67.1875 C 11.128906 -68.269531 13.082031 -68.8125 15.84375 -68.8125 C 18.539062 -68.8125 20.429688 -68.269531 21.515625 -67.1875 C 22.597656 -66.101562 23.050781 -64.914062 22.875 -63.625 C 22.113281 -57 21.644531 -50.457031 21.46875 -44 C 21.289062 -37.539062 21.15625 -31.070312 21.0625 -24.59375 C 20.976562 -18.113281 20.675781 -11.410156 20.15625 -4.484375 C 20.09375 -3.660156 19.84375 -2.851562 19.40625 -2.0625 C 18.96875 -1.269531 18.21875 -0.625 17.15625 -0.125 C 16.101562 0.363281 14.640625 0.609375 12.765625 0.609375 C 10.117188 0.609375 8.191406 0.0507812 6.984375 -1.0625 C 5.785156 -2.175781 5.21875 -3.40625 5.28125 -4.75 C 5.75 -11.5 6.023438 -18.070312 6.109375 -24.46875 C 6.203125 -30.863281 6.363281 -37.269531 6.59375 -43.6875 C 6.832031 -50.113281 7.332031 -56.757812 8.09375 -63.625 Z M 13.90625 -27.28125 C 13.257812 -27.28125 12.65625 -27.515625 12.09375 -27.984375 C 11.539062 -28.453125 11.101562 -29.332031 10.78125 -30.625 C 10.457031 -31.914062 10.296875 -33.789062 10.296875 -36.25 C 10.296875 -37.601562 10.691406 -38.601562 11.484375 -39.25 C 12.273438 -39.894531 13.109375 -40.242188 13.984375 -40.296875 C 17.566406 -40.421875 20.75 -40.523438 23.53125 -40.609375 C 26.320312 -40.703125 29.109375 -40.773438 31.890625 -40.828125 C 34.679688 -40.890625 37.789062 -40.9375 41.21875 -40.96875 C 44.65625 -41 48.78125 -41.015625 53.59375 -41.015625 C 54.59375 -41.015625 55.441406 -40.675781 56.140625 -40 C 56.847656 -39.320312 57.203125 -38.367188 57.203125 -37.140625 C 57.203125 -34.203125 56.847656 -32.101562 56.140625 -30.84375 C 55.441406 -29.582031 54.578125 -28.804688 53.546875 -28.515625 C 52.523438 -28.222656 51.539062 -28.078125 50.59375 -28.078125 C 48.1875 -28.128906 45.425781 -28.15625 42.3125 -28.15625 C 39.207031 -28.15625 35.367188 -28.082031 30.796875 -27.9375 C 26.222656 -27.789062 20.59375 -27.570312 13.90625 -27.28125 Z M 48.75 -62.828125 C 48.863281 -64.179688 49.445312 -65.398438 50.5 -66.484375 C 51.5625 -67.566406 53.5 -68.109375 56.3125 -68.109375 C 59.019531 -68.109375 60.941406 -67.566406 62.078125 -66.484375 C 63.222656 -65.398438 63.738281 -64.179688 63.625 -62.828125 C 63.5625 -60.773438 63.484375 -58.835938 63.390625 -57.015625 C 63.304688 -55.203125 63.207031 -53.148438 63.09375 -50.859375 C 62.800781 -42.703125 62.582031 -34.765625 62.4375 -27.046875 C 62.289062 -19.335938 62.21875 -11.4375 62.21875 -3.34375 C 62.21875 -2.113281 61.660156 -0.957031 60.546875 0.125 C 59.429688 1.21875 57.523438 1.765625 54.828125 1.765625 C 52.003906 1.765625 50.050781 1.21875 48.96875 0.125 C 47.882812 -0.957031 47.34375 -2.113281 47.34375 -3.34375 C 47.34375 -13.726562 47.457031 -23.726562 47.6875 -33.34375 C 47.925781 -42.96875 48.28125 -52.796875 48.75 -62.828125 Z M 48.75 -62.828125 "/></g></g></g><g fill="#12f7d6" fill-opacity="1"><g transform="translate(83.657805, 293.23104)"><g><path d="M 27.1875 -48.65625 C 28.59375 -48.65625 30.234375 -48.507812 32.109375 -48.21875 C 33.992188 -47.925781 35.769531 -47.515625 37.4375 -46.984375 C 39.113281 -46.460938 40.390625 -45.820312 41.265625 -45.0625 C 44.085938 -42.882812 46.144531 -40.035156 47.4375 -36.515625 C 48.726562 -32.992188 49.375 -29.238281 49.375 -25.25 C 49.375 -22.03125 48.929688 -18.878906 48.046875 -15.796875 C 47.171875 -12.710938 45.820312 -9.9375 44 -7.46875 C 42.175781 -5.007812 39.882812 -3.046875 37.125 -1.578125 C 34.375 -0.117188 31.125 0.609375 27.375 0.609375 C 23.082031 0.609375 19.378906 -0.03125 16.265625 -1.3125 C 13.160156 -2.601562 10.597656 -4.394531 8.578125 -6.6875 C 6.554688 -8.976562 5.0625 -11.585938 4.09375 -14.515625 C 3.125 -17.453125 2.640625 -20.5625 2.640625 -23.84375 C 2.640625 -27.007812 3.125 -30.070312 4.09375 -33.03125 C 5.0625 -36 6.554688 -38.640625 8.578125 -40.953125 C 10.597656 -43.273438 13.148438 -45.140625 16.234375 -46.546875 C 19.316406 -47.953125 22.96875 -48.65625 27.1875 -48.65625 Z M 17.34375 -24.28125 C 17.34375 -22.113281 17.660156 -19.988281 18.296875 -17.90625 C 18.941406 -15.820312 19.96875 -14.101562 21.375 -12.75 C 22.789062 -11.40625 24.582031 -10.734375 26.75 -10.734375 C 28.21875 -10.734375 29.460938 -11.15625 30.484375 -12 C 31.515625 -12.851562 32.335938 -13.96875 32.953125 -15.34375 C 33.566406 -16.726562 34.003906 -18.226562 34.265625 -19.84375 C 34.535156 -21.457031 34.671875 -23.023438 34.671875 -24.546875 C 34.671875 -27.890625 34.242188 -30.53125 33.390625 -32.46875 C 32.546875 -34.40625 31.421875 -35.875 30.015625 -36.875 C 29.367188 -37.050781 28.796875 -37.179688 28.296875 -37.265625 C 27.796875 -37.359375 27.25 -37.40625 26.65625 -37.40625 C 24.957031 -37.40625 23.492188 -37.019531 22.265625 -36.25 C 21.035156 -35.488281 20.066406 -34.492188 19.359375 -33.265625 C 18.648438 -32.035156 18.132812 -30.65625 17.8125 -29.125 C 17.5 -27.601562 17.34375 -25.988281 17.34375 -24.28125 Z M 17.34375 -24.28125 "/></g></g></g><g fill="#12f7d6" fill-opacity="1"><g transform="translate(135.399527, 293.23104)"><g><path d="M 38.015625 -43.390625 C 38.484375 -42.921875 38.878906 -42.363281 39.203125 -41.71875 C 39.523438 -41.070312 39.6875 -40.363281 39.6875 -39.59375 C 39.6875 -38.832031 39.40625 -37.96875 38.84375 -37 C 38.289062 -36.03125 37.585938 -35.191406 36.734375 -34.484375 C 35.890625 -33.785156 34.96875 -33.4375 33.96875 -33.4375 C 33.082031 -33.4375 32.375 -33.582031 31.84375 -33.875 C 31.320312 -34.164062 30.828125 -34.519531 30.359375 -34.9375 C 29.535156 -35.757812 28.476562 -36.550781 27.1875 -37.3125 C 25.894531 -38.070312 24.488281 -38.453125 22.96875 -38.453125 C 21.96875 -38.453125 21.054688 -38.203125 20.234375 -37.703125 C 19.421875 -37.203125 19.015625 -36.484375 19.015625 -35.546875 C 19.015625 -34.378906 19.613281 -33.410156 20.8125 -32.640625 C 22.007812 -31.878906 23.988281 -30.765625 26.75 -29.296875 C 29.039062 -28.066406 31.078125 -26.835938 32.859375 -25.609375 C 34.648438 -24.378906 36.054688 -22.894531 37.078125 -21.15625 C 38.109375 -19.425781 38.625 -17.1875 38.625 -14.4375 C 38.625 -11.738281 37.90625 -9.242188 36.46875 -6.953125 C 35.03125 -4.660156 32.992188 -2.8125 30.359375 -1.40625 C 27.722656 0 24.613281 0.703125 21.03125 0.703125 C 17.800781 0.703125 14.601562 0.265625 11.4375 -0.609375 C 8.269531 -1.492188 5.570312 -2.90625 3.34375 -4.84375 C 2.875 -5.25 2.445312 -5.726562 2.0625 -6.28125 C 1.6875 -6.84375 1.5 -7.59375 1.5 -8.53125 C 1.5 -10.0625 2.023438 -11.484375 3.078125 -12.796875 C 4.128906 -14.117188 5.273438 -14.78125 6.515625 -14.78125 C 6.984375 -14.78125 7.390625 -14.722656 7.734375 -14.609375 C 8.085938 -14.492188 8.472656 -14.285156 8.890625 -13.984375 C 10.765625 -12.753906 12.550781 -11.757812 14.25 -11 C 15.957031 -10.238281 17.804688 -9.859375 19.796875 -9.859375 C 21.203125 -9.859375 22.269531 -10.09375 23 -10.5625 C 23.738281 -11.03125 24.109375 -11.644531 24.109375 -12.40625 C 24.109375 -13.695312 23.492188 -14.753906 22.265625 -15.578125 C 21.035156 -16.398438 19.394531 -17.304688 17.34375 -18.296875 C 13.988281 -19.890625 11.375 -21.460938 9.5 -23.015625 C 7.625 -24.566406 6.289062 -26.207031 5.5 -27.9375 C 4.707031 -29.664062 4.3125 -31.585938 4.3125 -33.703125 C 4.3125 -36.515625 5.117188 -39.050781 6.734375 -41.3125 C 8.347656 -43.570312 10.546875 -45.347656 13.328125 -46.640625 C 16.117188 -47.929688 19.273438 -48.578125 22.796875 -48.578125 C 25.546875 -48.578125 28.359375 -48.148438 31.234375 -47.296875 C 34.109375 -46.453125 36.367188 -45.148438 38.015625 -43.390625 Z M 38.015625 -43.390625 "/></g></g></g><g fill="#12f7d6" fill-opacity="1"><g transform="translate(177.461677, 293.23104)"><g><path d="M 38.015625 -43.390625 C 38.484375 -42.921875 38.878906 -42.363281 39.203125 -41.71875 C 39.523438 -41.070312 39.6875 -40.363281 39.6875 -39.59375 C 39.6875 -38.832031 39.40625 -37.96875 38.84375 -37 C 38.289062 -36.03125 37.585938 -35.191406 36.734375 -34.484375 C 35.890625 -33.785156 34.96875 -33.4375 33.96875 -33.4375 C 33.082031 -33.4375 32.375 -33.582031 31.84375 -33.875 C 31.320312 -34.164062 30.828125 -34.519531 30.359375 -34.9375 C 29.535156 -35.757812 28.476562 -36.550781 27.1875 -37.3125 C 25.894531 -38.070312 24.488281 -38.453125 22.96875 -38.453125 C 21.96875 -38.453125 21.054688 -38.203125 20.234375 -37.703125 C 19.421875 -37.203125 19.015625 -36.484375 19.015625 -35.546875 C 19.015625 -34.378906 19.613281 -33.410156 20.8125 -32.640625 C 22.007812 -31.878906 23.988281 -30.765625 26.75 -29.296875 C 29.039062 -28.066406 31.078125 -26.835938 32.859375 -25.609375 C 34.648438 -24.378906 36.054688 -22.894531 37.078125 -21.15625 C 38.109375 -19.425781 38.625 -17.1875 38.625 -14.4375 C 38.625 -11.738281 37.90625 -9.242188 36.46875 -6.953125 C 35.03125 -4.660156 32.992188 -2.8125 30.359375 -1.40625 C 27.722656 0 24.613281 0.703125 21.03125 0.703125 C 17.800781 0.703125 14.601562 0.265625 11.4375 -0.609375 C 8.269531 -1.492188 5.570312 -2.90625 3.34375 -4.84375 C 2.875 -5.25 2.445312 -5.726562 2.0625 -6.28125 C 1.6875 -6.84375 1.5 -7.59375 1.5 -8.53125 C 1.5 -10.0625 2.023438 -11.484375 3.078125 -12.796875 C 4.128906 -14.117188 5.273438 -14.78125 6.515625 -14.78125 C 6.984375 -14.78125 7.390625 -14.722656 7.734375 -14.609375 C 8.085938 -14.492188 8.472656 -14.285156 8.890625 -13.984375 C 10.765625 -12.753906 12.550781 -11.757812 14.25 -11 C 15.957031 -10.238281 17.804688 -9.859375 19.796875 -9.859375 C 21.203125 -9.859375 22.269531 -10.09375 23 -10.5625 C 23.738281 -11.03125 24.109375 -11.644531 24.109375 -12.40625 C 24.109375 -13.695312 23.492188 -14.753906 22.265625 -15.578125 C 21.035156 -16.398438 19.394531 -17.304688 17.34375 -18.296875 C 13.988281 -19.890625 11.375 -21.460938 9.5 -23.015625 C 7.625 -24.566406 6.289062 -26.207031 5.5 -27.9375 C 4.707031 -29.664062 4.3125 -31.585938 4.3125 -33.703125 C 4.3125 -36.515625 5.117188 -39.050781 6.734375 -41.3125 C 8.347656 -43.570312 10.546875 -45.347656 13.328125 -46.640625 C 16.117188 -47.929688 19.273438 -48.578125 22.796875 -48.578125 C 25.546875 -48.578125 28.359375 -48.148438 31.234375 -47.296875 C 34.109375 -46.453125 36.367188 -45.148438 38.015625 -43.390625 Z M 38.015625 -43.390625 "/></g></g></g><g fill="#12f7d6" fill-opacity="1"><g transform="translate(219.523827, 293.23104)"><g><path d="M 3.078125 -20.59375 C 3.078125 -24.164062 3.601562 -27.625 4.65625 -30.96875 C 5.71875 -34.3125 7.226562 -37.300781 9.1875 -39.9375 C 11.15625 -42.582031 13.5625 -44.679688 16.40625 -46.234375 C 19.257812 -47.796875 22.503906 -48.578125 26.140625 -48.578125 C 28.421875 -48.578125 30.425781 -48.207031 32.15625 -47.46875 C 33.894531 -46.738281 35.4375 -45.703125 36.78125 -44.359375 C 37.070312 -45.640625 37.570312 -46.691406 38.28125 -47.515625 C 38.988281 -48.335938 40.25 -48.75 42.0625 -48.75 C 44.175781 -48.75 46.023438 -48.234375 47.609375 -47.203125 C 49.191406 -46.179688 49.953125 -44.878906 49.890625 -43.296875 C 49.835938 -41.710938 49.578125 -39.554688 49.109375 -36.828125 C 48.640625 -34.097656 48.226562 -31.414062 47.875 -28.78125 C 47.757812 -27.957031 47.597656 -26.898438 47.390625 -25.609375 C 47.179688 -24.316406 47.003906 -23.039062 46.859375 -21.78125 C 46.710938 -20.519531 46.609375 -19.445312 46.546875 -18.5625 C 46.492188 -17.6875 46.46875 -16.585938 46.46875 -15.265625 C 46.46875 -13.941406 46.640625 -12.78125 46.984375 -11.78125 C 47.335938 -10.789062 47.925781 -10.296875 48.75 -10.296875 C 49.21875 -10.296875 49.628906 -10.410156 49.984375 -10.640625 C 50.335938 -10.878906 50.691406 -11.203125 51.046875 -11.609375 C 51.628906 -12.023438 52.140625 -12.363281 52.578125 -12.625 C 53.015625 -12.894531 53.585938 -13.03125 54.296875 -13.03125 C 55.117188 -13.03125 55.863281 -12.75 56.53125 -12.1875 C 57.207031 -11.632812 57.738281 -10.882812 58.125 -9.9375 C 58.507812 -9 58.523438 -7.945312 58.171875 -6.78125 C 57.929688 -5.664062 57.164062 -4.519531 55.875 -3.34375 C 54.582031 -2.164062 53.070312 -1.179688 51.34375 -0.390625 C 49.613281 0.398438 47.898438 0.796875 46.203125 0.796875 C 44.492188 0.796875 42.9375 0.429688 41.53125 -0.296875 C 40.125 -1.035156 38.9375 -2.035156 37.96875 -3.296875 C 37 -4.554688 36.335938 -6.039062 35.984375 -7.75 C 34.460938 -5.457031 32.453125 -3.546875 29.953125 -2.015625 C 27.460938 -0.492188 24.664062 0.265625 21.5625 0.265625 C 17.6875 0.265625 14.367188 -0.640625 11.609375 -2.453125 C 8.859375 -4.273438 6.75 -6.753906 5.28125 -9.890625 C 3.8125 -13.035156 3.078125 -16.601562 3.078125 -20.59375 Z M 17.953125 -21.203125 C 17.953125 -19.328125 18.15625 -17.640625 18.5625 -16.140625 C 18.976562 -14.648438 19.609375 -13.460938 20.453125 -12.578125 C 21.304688 -11.703125 22.4375 -11.265625 23.84375 -11.265625 C 25.019531 -11.265625 26.046875 -11.539062 26.921875 -12.09375 C 27.804688 -12.65625 28.597656 -13.421875 29.296875 -14.390625 C 30.003906 -15.359375 30.5625 -16.488281 30.96875 -17.78125 C 31.445312 -19.125 31.859375 -20.53125 32.203125 -22 C 32.554688 -23.46875 32.847656 -24.960938 33.078125 -26.484375 C 33.316406 -28.015625 33.523438 -29.507812 33.703125 -30.96875 C 33.878906 -32.4375 34.023438 -33.875 34.140625 -35.28125 C 33.316406 -36.050781 32.378906 -36.65625 31.328125 -37.09375 C 30.273438 -37.53125 29.160156 -37.75 27.984375 -37.75 C 26.398438 -37.75 24.988281 -37.320312 23.75 -36.46875 C 22.519531 -35.625 21.460938 -34.4375 20.578125 -32.90625 C 19.703125 -31.382812 19.046875 -29.625 18.609375 -27.625 C 18.171875 -25.632812 17.953125 -23.492188 17.953125 -21.203125 Z M 17.953125 -21.203125 "/></g></g></g><g fill="#12f7d6" fill-opacity="1"><g transform="translate(279.009205, 293.23104)"><g><path d="M 7.390625 -43.296875 C 7.390625 -44.472656 7.738281 -45.441406 8.4375 -46.203125 C 9.144531 -46.960938 10.054688 -47.546875 11.171875 -47.953125 C 12.285156 -48.367188 13.375 -48.578125 14.4375 -48.578125 C 16.894531 -48.578125 18.738281 -48.132812 19.96875 -47.25 C 21.207031 -46.375 21.828125 -45.054688 21.828125 -43.296875 C 21.828125 -39.304688 21.722656 -35.738281 21.515625 -32.59375 C 21.304688 -29.457031 21.070312 -26.4375 20.8125 -23.53125 C 20.550781 -20.632812 20.300781 -17.601562 20.0625 -14.4375 C 19.832031 -11.269531 19.65625 -7.628906 19.53125 -3.515625 C 19.476562 -1.878906 18.804688 -0.664062 17.515625 0.125 C 16.222656 0.914062 14.460938 1.3125 12.234375 1.3125 C 10.179688 1.3125 8.625 1.019531 7.5625 0.4375 C 6.507812 -0.144531 5.804688 -0.859375 5.453125 -1.703125 C 5.097656 -2.554688 4.921875 -3.425781 4.921875 -4.3125 C 4.921875 -4.84375 4.992188 -6.132812 5.140625 -8.1875 C 5.296875 -10.238281 5.488281 -12.757812 5.71875 -15.75 C 5.957031 -18.738281 6.207031 -21.90625 6.46875 -25.25 C 6.726562 -28.59375 6.945312 -31.847656 7.125 -35.015625 C 7.300781 -38.191406 7.390625 -40.953125 7.390625 -43.296875 Z M 7.125 -62.5625 C 7.125 -64.207031 7.472656 -65.644531 8.171875 -66.875 C 8.878906 -68.113281 9.832031 -69.066406 11.03125 -69.734375 C 12.238281 -70.410156 13.578125 -70.75 15.046875 -70.75 C 17.566406 -70.75 19.488281 -70.351562 20.8125 -69.5625 C 22.132812 -68.769531 23.03125 -67.816406 23.5 -66.703125 C 23.96875 -65.585938 24.203125 -64.53125 24.203125 -63.53125 C 24.203125 -61.070312 23.363281 -59.125 21.6875 -57.6875 C 20.019531 -56.25 17.863281 -55.53125 15.21875 -55.53125 C 12.8125 -55.53125 10.859375 -56.128906 9.359375 -57.328125 C 7.867188 -58.535156 7.125 -60.28125 7.125 -62.5625 Z M 7.125 -62.5625 "/></g></g></g><g fill="#12f7d6" fill-opacity="1"><g transform="translate(306.112017, 293.23104)"><g><path d="M 6.34375 -45.140625 C 6.632812 -46.722656 7.363281 -47.820312 8.53125 -48.4375 C 9.707031 -49.0625 11.441406 -49.375 13.734375 -49.375 C 15.960938 -49.375 17.554688 -48.929688 18.515625 -48.046875 C 19.484375 -47.171875 19.96875 -46.257812 19.96875 -45.3125 C 19.96875 -44.84375 19.910156 -44.226562 19.796875 -43.46875 C 19.679688 -42.707031 19.578125 -41.859375 19.484375 -40.921875 C 19.398438 -39.984375 19.328125 -38.984375 19.265625 -37.921875 C 20.035156 -39.503906 20.960938 -41.117188 22.046875 -42.765625 C 23.128906 -44.410156 24.640625 -45.773438 26.578125 -46.859375 C 28.515625 -47.941406 31.035156 -48.484375 34.140625 -48.484375 C 39.304688 -48.484375 43.175781 -46.617188 45.75 -42.890625 C 48.332031 -39.171875 49.625 -34.289062 49.625 -28.25 C 49.625 -25.132812 49.421875 -22.210938 49.015625 -19.484375 C 48.609375 -16.765625 48.195312 -14.128906 47.78125 -11.578125 C 47.375 -9.023438 47.171875 -6.425781 47.171875 -3.78125 C 47.171875 -2.550781 46.550781 -1.421875 45.3125 -0.390625 C 44.082031 0.628906 42.175781 1.140625 39.59375 1.140625 C 37.070312 1.140625 35.296875 0.613281 34.265625 -0.4375 C 33.242188 -1.5 32.734375 -2.757812 32.734375 -4.21875 C 32.734375 -6.863281 32.96875 -9.3125 33.4375 -11.5625 C 33.90625 -13.820312 34.359375 -16.125 34.796875 -18.46875 C 35.242188 -20.820312 35.46875 -23.46875 35.46875 -26.40625 C 35.46875 -28.75 35.273438 -30.578125 34.890625 -31.890625 C 34.503906 -33.210938 33.914062 -34.179688 33.125 -34.796875 C 32.332031 -35.421875 31.378906 -35.734375 30.265625 -35.734375 C 29.035156 -35.734375 27.890625 -35.289062 26.828125 -34.40625 C 25.773438 -33.53125 24.804688 -32.382812 23.921875 -30.96875 C 23.046875 -29.5625 22.285156 -28.019531 21.640625 -26.34375 C 21.003906 -24.675781 20.445312 -23.050781 19.96875 -21.46875 C 20.144531 -18.238281 20.25 -15.039062 20.28125 -11.875 C 20.3125 -8.707031 20.238281 -5.894531 20.0625 -3.4375 C 20 -2.195312 19.394531 -1.109375 18.25 -0.171875 C 17.113281 0.765625 15.285156 1.234375 12.765625 1.234375 C 10.472656 1.234375 8.785156 0.878906 7.703125 0.171875 C 6.617188 -0.523438 5.914062 -1.445312 5.59375 -2.59375 C 5.269531 -3.738281 5.109375 -4.957031 5.109375 -6.25 C 5.109375 -8.300781 5.191406 -10.46875 5.359375 -12.75 C 5.535156 -15.039062 5.863281 -17.273438 6.34375 -19.453125 C 6.21875 -22.671875 6.109375 -25.570312 6.015625 -28.15625 C 5.929688 -30.738281 5.875 -33.085938 5.84375 -35.203125 C 5.820312 -37.316406 5.835938 -39.191406 5.890625 -40.828125 C 5.953125 -42.472656 6.101562 -43.910156 6.34375 -45.140625 Z M 6.34375 -45.140625 "/></g></g></g></svg>